<?xml version="1.0" encoding="iso-8859-1"?>
<!-- Generator: Adobe Illustrator 19.0.0, SVG Export Plug-In . SVG Version: 6.00 Build 0)  -->
<svg version="1.1" id="Capa_1" xmlns="http://www.w3.org/2000/svg" xmlns:xlink="http://www.w3.org/1999/xlink" x="0px" y="0px"
	 viewBox="0 0 470.08 470.08" style="enable-background:new 0 0 470.08 470.08;" xml:space="preserve">
<g>
	
		<linearGradient id="SVGID_1_" gradientUnits="userSpaceOnUse" x1="-31.8352" y1="551.8046" x2="-31.8352" y2="613.0316" gradientTransform="matrix(8 0 0 -8 489.7214 4896.3564)">
		<stop  offset="0" style="stop-color:#006DF0"/>
		<stop  offset="1" style="stop-color:#00E7F0"/>
	</linearGradient>
	<path style="fill:url(#SVGID_1_);" d="M235.04,339.04c-57.438,0-104-46.562-104-104s46.562-104,104-104s104,46.562,104,104
		C338.974,292.45,292.45,338.973,235.04,339.04z M235.04,147.04c-48.601,0-88,39.399-88,88s39.399,88,88,88s88-39.399,88-88
		C322.982,186.462,283.617,147.097,235.04,147.04z"/>
	
		<linearGradient id="SVGID_2_" gradientUnits="userSpaceOnUse" x1="-31.8352" y1="551.8046" x2="-31.8352" y2="613.0316" gradientTransform="matrix(8 0 0 -8 489.7214 4896.3564)">
		<stop  offset="0" style="stop-color:#006DF0"/>
		<stop  offset="1" style="stop-color:#00E7F0"/>
	</linearGradient>
	<path style="fill:url(#SVGID_2_);" d="M282.88,470.08c-4.418-0.001-7.999-3.584-7.998-8.002c0-0.441,0.037-0.882,0.11-1.318
		c0.061-0.571,0.077-1.146,0.048-1.72c0-22.091-17.909-40-40-40s-40,17.909-40,40c-0.029,0.574-0.013,1.149,0.048,1.72
		c0.728,4.358-2.215,8.481-6.573,9.209c-0.975,0.163-1.971,0.144-2.939-0.057c-29.092-6.04-56.779-17.53-81.6-33.864
		c-3.695-2.422-4.728-7.381-2.306-11.076c0.55-0.84,1.254-1.568,2.074-2.148c0.432-0.337,0.834-0.712,1.2-1.12
		c16.203-15.016,17.165-40.325,2.149-56.528s-40.325-17.165-56.528-2.149c-0.741,0.686-1.455,1.4-2.141,2.141
		c-0.411,0.369-0.788,0.773-1.128,1.208c-1.465,2.233-4.005,3.521-6.672,3.384c-2.648-0.047-5.101-1.4-6.552-3.616
		c-16.334-24.821-27.824-52.508-33.864-81.6c-0.895-4.327,1.886-8.56,6.213-9.455c0.968-0.2,1.964-0.22,2.939-0.057
		c0.559,0.042,1.12,0.044,1.68,0.008c22.091,0,40-17.909,40-40s-17.909-40-40-40c-0.574-0.029-1.149-0.012-1.72,0.048
		c-4.358,0.728-8.481-2.215-9.209-6.573c-0.163-0.975-0.144-1.971,0.057-2.939c6.04-29.092,17.53-56.779,33.864-81.6
		c1.451-2.216,3.904-3.569,6.552-3.616c2.655-0.082,5.169,1.193,6.672,3.384c0.337,0.432,0.712,0.834,1.12,1.2
		c15.016,16.203,40.324,17.165,56.528,2.149c16.203-15.016,17.165-40.324,2.149-56.528c-0.686-0.741-1.401-1.455-2.141-2.142
		c-0.361-0.405-0.757-0.778-1.184-1.112c-3.617-2.537-4.493-7.526-1.955-11.143c0.582-0.83,1.316-1.541,2.163-2.097
		c24.83-16.352,52.531-27.856,81.64-33.904c4.327-0.895,8.56,1.886,9.455,6.213c0.2,0.968,0.22,1.964,0.057,2.939
		c-0.061,0.571-0.077,1.146-0.048,1.72c0,22.091,17.909,40,40,40s40-17.909,40-40c0.029-0.574,0.013-1.149-0.048-1.72
		c-0.728-4.358,2.215-8.481,6.573-9.209c0.975-0.163,1.971-0.144,2.939,0.057c29.092,6.04,56.779,17.53,81.6,33.864
		c3.695,2.422,4.727,7.381,2.305,11.077c-0.556,0.847-1.267,1.582-2.097,2.163c-0.424,0.332-0.818,0.701-1.176,1.104
		c-16.203,15.016-17.166,40.324-2.15,56.528s40.324,17.166,56.528,2.15c0.741-0.686,1.455-1.401,2.142-2.141
		c0.411-0.369,0.788-0.773,1.128-1.208c1.565-2.118,4.039-3.372,6.672-3.384c2.648,0.047,5.101,1.4,6.552,3.616
		c16.338,24.833,27.828,52.534,33.864,81.64c0.895,4.327-1.886,8.56-6.213,9.455c-0.968,0.2-1.964,0.22-2.939,0.057
		c-0.558-0.059-1.12-0.075-1.68-0.048c-22.091,0-40,17.909-40,40s17.909,40,40,40c0.574,0.025,1.149,0.009,1.72-0.048
		c4.358-0.728,8.481,2.215,9.209,6.573c0.163,0.975,0.144,1.971-0.057,2.939c-6.04,29.092-17.53,56.779-33.864,81.6
		c-2.422,3.695-7.381,4.728-11.076,2.306c-0.84-0.55-1.568-1.254-2.148-2.074c-0.337-0.432-0.712-0.834-1.12-1.2
		c-15.016-16.203-40.324-17.165-56.528-2.149c-16.203,15.016-17.165,40.324-2.149,56.528c0.686,0.741,1.401,1.455,2.141,2.142
		c0.369,0.411,0.773,0.788,1.208,1.128c3.608,2.55,4.466,7.542,1.916,11.15c-0.579,0.82-1.308,1.523-2.148,2.074
		c-24.821,16.334-52.508,27.824-81.6,33.864C283.998,469.999,283.44,470.068,282.88,470.08L282.88,470.08z M235.04,403.04
		c28.231,0.032,52.036,21.047,55.568,49.056c20.609-5.223,40.349-13.415,58.6-24.32c-18.947-24.445-14.491-59.621,9.953-78.568
		c20.194-15.652,48.421-15.652,68.615,0c10.901-18.253,19.094-37.992,24.32-58.6c-30.689-3.834-52.46-31.821-48.626-62.51
		c3.176-25.424,23.202-45.449,48.626-48.626c-5.223-20.609-13.415-40.349-24.32-58.6c-24.445,18.947-59.621,14.491-78.568-9.953
		c-15.652-20.194-15.652-48.421,0-68.615c-18.253-10.901-37.992-19.094-58.6-24.32c-3.834,30.689-31.821,52.46-62.51,48.626
		c-25.424-3.176-45.449-23.202-48.626-48.626c-20.609,5.223-40.349,13.415-58.6,24.32c18.947,24.444,14.491,59.621-9.953,78.568
		c-20.194,15.652-48.421,15.652-68.615,0c-10.901,18.253-19.094,37.992-24.32,58.6c30.689,3.834,52.46,31.821,48.626,62.51
		c-3.176,25.424-23.202,45.449-48.626,48.626c5.223,20.609,13.415,40.349,24.32,58.6c24.445-18.947,59.621-14.491,78.568,9.953
		c15.652,20.194,15.652,48.421,0,68.615c18.253,10.901,37.992,19.094,58.6,24.32C183.004,424.087,206.809,403.071,235.04,403.04z"/>
</g>
<g>
</g>
<g>
</g>
<g>
</g>
<g>
</g>
<g>
</g>
<g>
</g>
<g>
</g>
<g>
</g>
<g>
</g>
<g>
</g>
<g>
</g>
<g>
</g>
<g>
</g>
<g>
</g>
<g>
</g>
</svg>
